<svg id="visual" viewBox="0 0 960 540" xmlns="http://www.w3.org/2000/svg" xmlns:xlink="http://www.w3.org/1999/xlink" version="1.1"><rect x="0" y="0" width="960" height="540" fill="#97c2f4"></rect><defs><linearGradient id="grad1_0" x1="43.8%" y1="0%" x2="100%" y2="100%"><stop offset="14.444444444444446%" stop-color="#fcfcd4" stop-opacity="1"></stop><stop offset="85.55555555555554%" stop-color="#fcfcd4" stop-opacity="1"></stop></linearGradient></defs><defs><linearGradient id="grad1_1" x1="43.8%" y1="0%" x2="100%" y2="100%"><stop offset="14.444444444444446%" stop-color="#fcfcd4" stop-opacity="1"></stop><stop offset="85.55555555555554%" stop-color="#97c2f4" stop-opacity="1"></stop></linearGradient></defs><defs><linearGradient id="grad2_0" x1="0%" y1="0%" x2="56.3%" y2="100%"><stop offset="14.444444444444446%" stop-color="#fcfcd4" stop-opacity="1"></stop><stop offset="85.55555555555554%" stop-color="#fcfcd4" stop-opacity="1"></stop></linearGradient></defs><defs><linearGradient id="grad2_1" x1="0%" y1="0%" x2="56.3%" y2="100%"><stop offset="14.444444444444446%" stop-color="#97c2f4" stop-opacity="1"></stop><stop offset="85.55555555555554%" stop-color="#fcfcd4" stop-opacity="1"></stop></linearGradient></defs><g transform="translate(960, 0)"><path d="M0 438C-37.9 408 -75.7 377.9 -120.2 370C-164.7 362 -215.8 376.2 -266.3 366.5C-316.7 356.8 -366.6 323.2 -382.7 278C-398.8 232.8 -381.2 175.9 -392.8 127.6C-404.4 79.3 -445.2 39.7 -486 0L0 0Z" fill="#9fe9e1"></path><path d="M0 219C-18.9 204 -37.9 189 -60.1 185C-82.3 181 -107.9 188.1 -133.1 183.2C-158.4 178.4 -183.3 161.6 -191.3 139C-199.4 116.4 -190.6 88 -196.4 63.8C-202.2 39.7 -222.6 19.8 -243 0L0 0Z" fill="#fcfcd4"></path></g><g transform="translate(0, 540)"><path d="M0 -438C39.9 -414.1 79.9 -390.1 123 -378.5C166.1 -366.9 212.4 -367.6 257.4 -354.3C302.5 -341.1 346.4 -313.8 382.7 -278C418.9 -242.2 447.4 -197.9 462.2 -150.2C477 -102.4 478 -51.2 479 0L0 0Z" fill="#9fe9e1"></path><path d="M0 -219C20 -207 39.9 -195.1 61.5 -189.3C83 -183.5 106.2 -183.8 128.7 -177.2C151.3 -170.5 173.2 -156.9 191.3 -139C209.4 -121.1 223.7 -99 231.1 -75.1C238.5 -51.2 239 -25.6 239.5 0L0 0Z" fill="#fcfcd4"></path></g></svg>
